<svg id="visual" viewBox="0 0 900 600" width="900" height="600" xmlns="http://www.w3.org/2000/svg" xmlns:xlink="http://www.w3.org/1999/xlink" version="1.1"><path d="M0 460L18.8 453.8C37.7 447.7 75.3 435.3 112.8 430.3C150.3 425.3 187.7 427.7 225.2 433.8C262.7 440 300.3 450 337.8 455.7C375.3 461.3 412.7 462.7 450.2 465.7C487.7 468.7 525.3 473.3 562.8 471.2C600.3 469 637.7 460 675.2 454C712.7 448 750.3 445 787.8 439.2C825.3 433.3 862.7 424.7 881.3 420.3L900 416L900 601L881.3 601C862.7 601 825.3 601 787.8 601C750.3 601 712.7 601 675.2 601C637.7 601 600.3 601 562.8 601C525.3 601 487.7 601 450.2 601C412.7 601 375.3 601 337.8 601C300.3 601 262.7 601 225.2 601C187.7 601 150.3 601 112.8 601C75.3 601 37.7 601 18.8 601L0 601Z" fill="#fcaf3c"></path><path d="M0 474L18.8 474.7C37.7 475.3 75.3 476.7 112.8 472C150.3 467.3 187.7 456.7 225.2 458C262.7 459.3 300.3 472.7 337.8 476.5C375.3 480.3 412.7 474.7 450.2 470.2C487.7 465.7 525.3 462.3 562.8 462.3C600.3 462.3 637.7 465.7 675.2 470.2C712.7 474.7 750.3 480.3 787.8 484.8C825.3 489.3 862.7 492.7 881.3 494.3L900 496L900 601L881.3 601C862.7 601 825.3 601 787.8 601C750.3 601 712.7 601 675.2 601C637.7 601 600.3 601 562.8 601C525.3 601 487.7 601 450.2 601C412.7 601 375.3 601 337.8 601C300.3 601 262.7 601 225.2 601C187.7 601 150.3 601 112.8 601C75.3 601 37.7 601 18.8 601L0 601Z" fill="#ff8a62"></path><path d="M0 521L18.8 518C37.7 515 75.3 509 112.8 507.5C150.3 506 187.7 509 225.2 508.5C262.7 508 300.3 504 337.8 505C375.3 506 412.7 512 450.2 514.8C487.7 517.7 525.3 517.3 562.8 510.3C600.3 503.3 637.7 489.7 675.2 483.8C712.7 478 750.3 480 787.8 481C825.3 482 862.7 482 881.3 482L900 482L900 601L881.3 601C862.7 601 825.3 601 787.8 601C750.3 601 712.7 601 675.2 601C637.7 601 600.3 601 562.8 601C525.3 601 487.7 601 450.2 601C412.7 601 375.3 601 337.8 601C300.3 601 262.7 601 225.2 601C187.7 601 150.3 601 112.8 601C75.3 601 37.7 601 18.8 601L0 601Z" fill="#ec7484"></path><path d="M0 551L18.8 546.5C37.7 542 75.3 533 112.8 533.3C150.3 533.7 187.7 543.3 225.2 543.7C262.7 544 300.3 535 337.8 533.8C375.3 532.7 412.7 539.3 450.2 536.7C487.7 534 525.3 522 562.8 515.7C600.3 509.3 637.7 508.7 675.2 508.3C712.7 508 750.3 508 787.8 514.8C825.3 521.7 862.7 535.3 881.3 542.2L900 549L900 601L881.3 601C862.7 601 825.3 601 787.8 601C750.3 601 712.7 601 675.2 601C637.7 601 600.3 601 562.8 601C525.3 601 487.7 601 450.2 601C412.7 601 375.3 601 337.8 601C300.3 601 262.7 601 225.2 601C187.7 601 150.3 601 112.8 601C75.3 601 37.7 601 18.8 601L0 601Z" fill="#c06d98"></path><path d="M0 555L18.8 557.3C37.7 559.7 75.3 564.3 112.8 561.7C150.3 559 187.7 549 225.2 548.3C262.7 547.7 300.3 556.3 337.8 557C375.3 557.7 412.7 550.3 450.2 548C487.7 545.7 525.3 548.3 562.8 554.3C600.3 560.3 637.7 569.7 675.2 571.3C712.7 573 750.3 567 787.8 561.5C825.3 556 862.7 551 881.3 548.5L900 546L900 601L881.3 601C862.7 601 825.3 601 787.8 601C750.3 601 712.7 601 675.2 601C637.7 601 600.3 601 562.8 601C525.3 601 487.7 601 450.2 601C412.7 601 375.3 601 337.8 601C300.3 601 262.7 601 225.2 601C187.7 601 150.3 601 112.8 601C75.3 601 37.7 601 18.8 601L0 601Z" fill="#8b6a98"></path></svg>