<svg id="visual" viewBox="0 0 1000 250" width="1000" height="250" xmlns="http://www.w3.org/2000/svg" xmlns:xlink="http://www.w3.org/1999/xlink" version="1.1"><path d="M0 73L20.8 77.3C41.7 81.7 83.3 90.3 125 93.7C166.7 97 208.3 95 250 95.2C291.7 95.3 333.3 97.7 375 90C416.7 82.3 458.3 64.7 500 50.5C541.7 36.3 583.3 25.7 625 27.5C666.7 29.3 708.3 43.7 750 48.7C791.7 53.7 833.3 49.3 875 45.3C916.7 41.3 958.3 37.7 979.2 35.8L1000 34L1000 251L979.2 251C958.3 251 916.7 251 875 251C833.3 251 791.7 251 750 251C708.3 251 666.7 251 625 251C583.3 251 541.7 251 500 251C458.3 251 416.7 251 375 251C333.3 251 291.7 251 250 251C208.3 251 166.7 251 125 251C83.3 251 41.7 251 20.8 251L0 251Z" fill="#fa7268"></path><path d="M0 85L20.8 90.5C41.7 96 83.3 107 125 102.3C166.7 97.7 208.3 77.3 250 76.8C291.7 76.3 333.3 95.7 375 104.5C416.7 113.3 458.3 111.7 500 111C541.7 110.3 583.3 110.7 625 117.2C666.7 123.7 708.3 136.3 750 134C791.7 131.7 833.3 114.3 875 98.7C916.7 83 958.3 69 979.2 62L1000 55L1000 251L979.2 251C958.3 251 916.7 251 875 251C833.3 251 791.7 251 750 251C708.3 251 666.7 251 625 251C583.3 251 541.7 251 500 251C458.3 251 416.7 251 375 251C333.3 251 291.7 251 250 251C208.3 251 166.7 251 125 251C83.3 251 41.7 251 20.8 251L0 251Z" fill="#e06888"></path><path d="M0 167L20.8 157C41.7 147 83.3 127 125 119.7C166.7 112.3 208.3 117.7 250 119.7C291.7 121.7 333.3 120.3 375 127C416.7 133.7 458.3 148.3 500 157.8C541.7 167.3 583.3 171.7 625 163.5C666.7 155.3 708.3 134.7 750 122C791.7 109.3 833.3 104.7 875 114.3C916.7 124 958.3 148 979.2 160L1000 172L1000 251L979.2 251C958.3 251 916.7 251 875 251C833.3 251 791.7 251 750 251C708.3 251 666.7 251 625 251C583.3 251 541.7 251 500 251C458.3 251 416.7 251 375 251C333.3 251 291.7 251 250 251C208.3 251 166.7 251 125 251C83.3 251 41.7 251 20.8 251L0 251Z" fill="#b76999"></path><path d="M0 166L20.8 171.7C41.7 177.3 83.3 188.7 125 186.2C166.7 183.7 208.3 167.3 250 161.7C291.7 156 333.3 161 375 164.2C416.7 167.3 458.3 168.7 500 165.8C541.7 163 583.3 156 625 157.2C666.7 158.3 708.3 167.7 750 174C791.7 180.3 833.3 183.7 875 183.8C916.7 184 958.3 181 979.2 179.5L1000 178L1000 251L979.2 251C958.3 251 916.7 251 875 251C833.3 251 791.7 251 750 251C708.3 251 666.7 251 625 251C583.3 251 541.7 251 500 251C458.3 251 416.7 251 375 251C333.3 251 291.7 251 250 251C208.3 251 166.7 251 125 251C83.3 251 41.7 251 20.8 251L0 251Z" fill="#8b6a98"></path><path d="M0 197L20.8 198.5C41.7 200 83.3 203 125 203.8C166.7 204.7 208.3 203.3 250 206C291.7 208.7 333.3 215.3 375 212.3C416.7 209.3 458.3 196.7 500 199C541.7 201.3 583.3 218.7 625 220.3C666.7 222 708.3 208 750 202.5C791.7 197 833.3 200 875 204.5C916.7 209 958.3 215 979.2 218L1000 221L1000 251L979.2 251C958.3 251 916.7 251 875 251C833.3 251 791.7 251 750 251C708.3 251 666.7 251 625 251C583.3 251 541.7 251 500 251C458.3 251 416.7 251 375 251C333.3 251 291.7 251 250 251C208.3 251 166.7 251 125 251C83.3 251 41.7 251 20.8 251L0 251Z" fill="#676787"></path></svg>