<svg id="visual" viewBox="0 0 1000 250" width="1000" height="250" xmlns="http://www.w3.org/2000/svg" xmlns:xlink="http://www.w3.org/1999/xlink" version="1.1"><path d="M0 85L12.8 86.3C25.7 87.7 51.3 90.3 77 86.3C102.7 82.3 128.3 71.7 154 72.3C179.7 73 205.3 85 231 92.5C256.7 100 282.3 103 308 99.2C333.7 95.3 359.3 84.7 385 80.5C410.7 76.3 436.3 78.7 461.8 73.8C487.3 69 512.7 57 538.2 53.2C563.7 49.3 589.3 53.7 615 59.3C640.7 65 666.3 72 692 71.8C717.7 71.7 743.3 64.3 769 59.7C794.7 55 820.3 53 846 60.8C871.7 68.7 897.3 86.3 923 86.8C948.7 87.3 974.3 70.7 987.2 62.3L1000 54L1000 251L987.2 251C974.3 251 948.7 251 923 251C897.3 251 871.7 251 846 251C820.3 251 794.7 251 769 251C743.3 251 717.7 251 692 251C666.3 251 640.7 251 615 251C589.3 251 563.7 251 538.2 251C512.7 251 487.3 251 461.8 251C436.3 251 410.7 251 385 251C359.3 251 333.7 251 308 251C282.3 251 256.7 251 231 251C205.3 251 179.7 251 154 251C128.3 251 102.7 251 77 251C51.3 251 25.7 251 12.8 251L0 251Z" fill="#fa7268"></path><path d="M0 131L12.8 120.8C25.7 110.7 51.3 90.3 77 92.2C102.7 94 128.3 118 154 125.5C179.7 133 205.3 124 231 111.3C256.7 98.7 282.3 82.3 308 79.2C333.7 76 359.3 86 385 87.5C410.7 89 436.3 82 461.8 81.7C487.3 81.3 512.7 87.7 538.2 95.2C563.7 102.7 589.3 111.3 615 110.7C640.7 110 666.3 100 692 93.8C717.7 87.7 743.3 85.3 769 83.7C794.7 82 820.3 81 846 88.8C871.7 96.7 897.3 113.3 923 113C948.7 112.7 974.3 95.3 987.2 86.7L1000 78L1000 251L987.2 251C974.3 251 948.7 251 923 251C897.3 251 871.7 251 846 251C820.3 251 794.7 251 769 251C743.3 251 717.7 251 692 251C666.3 251 640.7 251 615 251C589.3 251 563.7 251 538.2 251C512.7 251 487.3 251 461.8 251C436.3 251 410.7 251 385 251C359.3 251 333.7 251 308 251C282.3 251 256.7 251 231 251C205.3 251 179.7 251 154 251C128.3 251 102.7 251 77 251C51.3 251 25.7 251 12.8 251L0 251Z" fill="#e06888"></path><path d="M0 171L12.8 164C25.7 157 51.3 143 77 139C102.7 135 128.3 141 154 141.8C179.7 142.7 205.3 138.3 231 136.5C256.7 134.7 282.3 135.3 308 131.5C333.7 127.7 359.3 119.3 385 120C410.7 120.7 436.3 130.3 461.8 140.5C487.3 150.7 512.7 161.3 538.2 164.5C563.7 167.7 589.3 163.3 615 151.2C640.7 139 666.3 119 692 121.5C717.7 124 743.3 149 769 153.8C794.7 158.7 820.3 143.3 846 140.7C871.7 138 897.3 148 923 153.3C948.7 158.7 974.3 159.3 987.2 159.7L1000 160L1000 251L987.2 251C974.3 251 948.7 251 923 251C897.3 251 871.7 251 846 251C820.3 251 794.7 251 769 251C743.3 251 717.7 251 692 251C666.3 251 640.7 251 615 251C589.3 251 563.7 251 538.2 251C512.7 251 487.3 251 461.8 251C436.3 251 410.7 251 385 251C359.3 251 333.7 251 308 251C282.3 251 256.7 251 231 251C205.3 251 179.7 251 154 251C128.3 251 102.7 251 77 251C51.3 251 25.7 251 12.8 251L0 251Z" fill="#b76999"></path><path d="M0 163L12.8 161.2C25.7 159.3 51.3 155.7 77 162.3C102.7 169 128.3 186 154 184.7C179.7 183.3 205.3 163.7 231 159.3C256.7 155 282.3 166 308 174.3C333.7 182.7 359.3 188.3 385 185.2C410.7 182 436.3 170 461.8 161.2C487.3 152.3 512.7 146.7 538.2 147.3C563.7 148 589.3 155 615 157.7C640.7 160.3 666.3 158.7 692 162.5C717.7 166.3 743.3 175.7 769 173C794.7 170.3 820.3 155.7 846 149.2C871.7 142.7 897.3 144.3 923 154.2C948.7 164 974.3 182 987.2 191L1000 200L1000 251L987.2 251C974.3 251 948.7 251 923 251C897.3 251 871.7 251 846 251C820.3 251 794.7 251 769 251C743.3 251 717.7 251 692 251C666.3 251 640.7 251 615 251C589.3 251 563.7 251 538.2 251C512.7 251 487.3 251 461.8 251C436.3 251 410.7 251 385 251C359.3 251 333.7 251 308 251C282.3 251 256.7 251 231 251C205.3 251 179.7 251 154 251C128.3 251 102.7 251 77 251C51.3 251 25.7 251 12.8 251L0 251Z" fill="#8b6a98"></path><path d="M0 188L12.8 188.3C25.7 188.7 51.3 189.3 77 195.5C102.7 201.7 128.3 213.3 154 212.7C179.7 212 205.3 199 231 192C256.7 185 282.3 184 308 184.8C333.7 185.7 359.3 188.3 385 189.8C410.7 191.3 436.3 191.7 461.8 196C487.3 200.3 512.7 208.7 538.2 210.2C563.7 211.7 589.3 206.3 615 203.3C640.7 200.3 666.3 199.7 692 202C717.7 204.3 743.3 209.7 769 213C794.7 216.3 820.3 217.7 846 212.2C871.7 206.7 897.3 194.3 923 189.8C948.7 185.3 974.3 188.7 987.2 190.3L1000 192L1000 251L987.2 251C974.3 251 948.7 251 923 251C897.3 251 871.7 251 846 251C820.3 251 794.7 251 769 251C743.3 251 717.7 251 692 251C666.3 251 640.7 251 615 251C589.3 251 563.7 251 538.2 251C512.7 251 487.3 251 461.8 251C436.3 251 410.7 251 385 251C359.3 251 333.7 251 308 251C282.3 251 256.7 251 231 251C205.3 251 179.7 251 154 251C128.3 251 102.7 251 77 251C51.3 251 25.7 251 12.8 251L0 251Z" fill="#676787"></path></svg>