<svg id="visual" viewBox="0 0 1920 1080" xmlns="http://www.w3.org/2000/svg" xmlns:xlink="http://www.w3.org/1999/xlink" version="1.1"><path d="M0 73L15.2 79.2C30.3 85.3 60.7 97.7 91 101.2C121.3 104.7 151.7 99.3 182 90.8C212.3 82.3 242.7 70.7 273 73.3C303.3 76 333.7 93 364 90C394.3 87 424.7 64 454.8 53C485 42 515 43 545.2 56.5C575.3 70 605.7 96 636 101.7C666.3 107.3 696.7 92.7 727 88.2C757.3 83.7 787.7 89.3 818 91C848.3 92.7 878.7 90.3 909 90.5C939.3 90.7 969.7 93.3 984.8 94.7L1000 96L1000 251L984.8 251C969.7 251 939.3 251 909 251C878.7 251 848.3 251 818 251C787.7 251 757.3 251 727 251C696.7 251 666.3 251 636 251C605.7 251 575.3 251 545.2 251C515 251 485 251 454.8 251C424.7 251 394.3 251 364 251C333.7 251 303.3 251 273 251C242.7 251 212.3 251 182 251C151.7 251 121.3 251 91 251C60.7 251 30.3 251 15.2 251L0 251Z" fill="#fa7268"></path><path d="M0 145L15.2 141.8C30.3 138.7 60.7 132.3 91 124.5C121.3 116.7 151.7 107.3 182 106.5C212.3 105.7 242.7 113.3 273 116.3C303.3 119.3 333.7 117.7 364 111.8C394.3 106 424.7 96 454.8 93.7C485 91.3 515 96.7 545.2 102.7C575.3 108.7 605.7 115.3 636 121C666.3 126.7 696.7 131.3 727 133.7C757.3 136 787.7 136 818 136.8C848.3 137.7 878.7 139.3 909 137.2C939.3 135 969.7 129 984.8 126L1000 123L1000 251L984.8 251C969.7 251 939.3 251 909 251C878.7 251 848.3 251 818 251C787.7 251 757.3 251 727 251C696.7 251 666.3 251 636 251C605.7 251 575.3 251 545.2 251C515 251 485 251 454.8 251C424.7 251 394.3 251 364 251C333.7 251 303.3 251 273 251C242.7 251 212.3 251 182 251C151.7 251 121.3 251 91 251C60.7 251 30.3 251 15.2 251L0 251Z" fill="#e06888"></path><path d="M0 134L15.2 134.2C30.3 134.3 60.7 134.7 91 132.7C121.3 130.7 151.7 126.3 182 128.2C212.3 130 242.7 138 273 138C303.3 138 333.7 130 364 126.2C394.3 122.3 424.7 122.7 454.8 122.8C485 123 515 123 545.2 124C575.3 125 605.7 127 636 128.2C666.3 129.3 696.7 129.7 727 130.7C757.3 131.7 787.7 133.3 818 136.2C848.3 139 878.7 143 909 146.5C939.3 150 969.7 153 984.8 154.5L1000 156L1000 251L984.8 251C969.7 251 939.3 251 909 251C878.7 251 848.3 251 818 251C787.7 251 757.3 251 727 251C696.7 251 666.3 251 636 251C605.7 251 575.3 251 545.2 251C515 251 485 251 454.8 251C424.7 251 394.3 251 364 251C333.7 251 303.3 251 273 251C242.7 251 212.3 251 182 251C151.7 251 121.3 251 91 251C60.7 251 30.3 251 15.2 251L0 251Z" fill="#b76999"></path><path d="M0 161L15.2 159.8C30.3 158.7 60.7 156.3 91 156.2C121.3 156 151.7 158 182 157.8C212.3 157.7 242.7 155.3 273 158.7C303.3 162 333.7 171 364 177.2C394.3 183.3 424.7 186.7 454.8 183.8C485 181 515 172 545.2 171.3C575.3 170.7 605.7 178.3 636 177.5C666.3 176.7 696.7 167.3 727 165.5C757.3 163.7 787.7 169.3 818 175.7C848.3 182 878.7 189 909 188.3C939.3 187.7 969.7 179.3 984.8 175.2L1000 171L1000 251L984.8 251C969.7 251 939.3 251 909 251C878.7 251 848.3 251 818 251C787.7 251 757.3 251 727 251C696.7 251 666.3 251 636 251C605.7 251 575.3 251 545.2 251C515 251 485 251 454.8 251C424.7 251 394.3 251 364 251C333.7 251 303.3 251 273 251C242.7 251 212.3 251 182 251C151.7 251 121.3 251 91 251C60.7 251 30.3 251 15.2 251L0 251Z" fill="#8b6a98"></path><path d="M0 195L15.2 199.2C30.3 203.3 60.7 211.7 91 214.7C121.3 217.7 151.7 215.3 182 212.2C212.3 209 242.7 205 273 206.5C303.3 208 333.7 215 364 215.3C394.3 215.7 424.7 209.3 454.8 206C485 202.7 515 202.3 545.2 205.3C575.3 208.3 605.7 214.7 636 218.5C666.3 222.3 696.7 223.7 727 223.5C757.3 223.3 787.7 221.7 818 220.7C848.3 219.7 878.7 219.3 909 217.7C939.3 216 969.7 213 984.8 211.5L1000 210L1000 251L984.8 251C969.7 251 939.3 251 909 251C878.7 251 848.3 251 818 251C787.7 251 757.3 251 727 251C696.7 251 666.3 251 636 251C605.7 251 575.3 251 545.2 251C515 251 485 251 454.8 251C424.7 251 394.3 251 364 251C333.7 251 303.3 251 273 251C242.7 251 212.3 251 182 251C151.7 251 121.3 251 91 251C60.7 251 30.3 251 15.2 251L0 251Z" fill="#676787"></path></svg>