<svg id="visual" viewBox="0 0 960 540" width="960" height="540" xmlns="http://www.w3.org/2000/svg" xmlns:xlink="http://www.w3.org/1999/xlink" version="1.1"><rect x="0" y="0" width="960" height="540" fill="#001220"></rect><defs><linearGradient id="grad1_0" x1="43.8%" y1="0%" x2="100%" y2="100%"><stop offset="14.444444444444446%" stop-color="#009473" stop-opacity="1"></stop><stop offset="85.55555555555554%" stop-color="#009473" stop-opacity="1"></stop></linearGradient></defs><defs><linearGradient id="grad1_1" x1="43.8%" y1="0%" x2="100%" y2="100%"><stop offset="14.444444444444446%" stop-color="#009473" stop-opacity="1"></stop><stop offset="85.55555555555554%" stop-color="#00505e" stop-opacity="1"></stop></linearGradient></defs><defs><linearGradient id="grad1_2" x1="43.8%" y1="0%" x2="100%" y2="100%"><stop offset="14.444444444444446%" stop-color="#001220" stop-opacity="1"></stop><stop offset="85.55555555555554%" stop-color="#00505e" stop-opacity="1"></stop></linearGradient></defs><defs><linearGradient id="grad2_0" x1="0%" y1="0%" x2="56.3%" y2="100%"><stop offset="14.444444444444446%" stop-color="#009473" stop-opacity="1"></stop><stop offset="85.55555555555554%" stop-color="#009473" stop-opacity="1"></stop></linearGradient></defs><defs><linearGradient id="grad2_1" x1="0%" y1="0%" x2="56.3%" y2="100%"><stop offset="14.444444444444446%" stop-color="#00505e" stop-opacity="1"></stop><stop offset="85.55555555555554%" stop-color="#009473" stop-opacity="1"></stop></linearGradient></defs><defs><linearGradient id="grad2_2" x1="0%" y1="0%" x2="56.3%" y2="100%"><stop offset="14.444444444444446%" stop-color="#00505e" stop-opacity="1"></stop><stop offset="85.55555555555554%" stop-color="#001220" stop-opacity="1"></stop></linearGradient></defs><g transform="translate(960, 0)"><path d="M0 378C-47.1 370.9 -94.2 363.8 -144.3 348.3C-194.3 332.8 -247.3 308.9 -267.3 267.3C-287.3 225.7 -274.4 166.5 -287.3 119C-300.3 71.5 -339.1 35.8 -378 0L0 0Z" fill="#002f42"></path><path d="M0 252C-31.4 247.3 -62.8 242.5 -96.2 232.2C-129.5 221.9 -164.8 205.9 -178.2 178.2C-191.5 150.5 -182.9 111 -191.6 79.3C-200.2 47.7 -226.1 23.8 -252 0L0 0Z" fill="#00726f"></path><path d="M0 126C-15.7 123.6 -31.4 121.3 -48.1 116.1C-64.8 110.9 -82.4 103 -89.1 89.1C-95.8 75.2 -91.5 55.5 -95.8 39.7C-100.1 23.8 -113 11.9 -126 0L0 0Z" fill="#009473"></path></g><g transform="translate(0, 540)"><path d="M0 -378C36.1 -335.1 72.1 -292.1 113.3 -273.5C154.4 -254.8 200.7 -260.4 244 -244C287.2 -227.5 327.4 -189 349.2 -144.7C371.1 -100.3 374.5 -50.2 378 0L0 0Z" fill="#002f42"></path><path d="M0 -252C24 -223.4 48.1 -194.8 75.5 -182.3C103 -169.9 133.8 -173.6 162.6 -162.6C191.5 -151.7 218.3 -126 232.8 -96.4C247.4 -66.9 249.7 -33.4 252 0L0 0Z" fill="#00726f"></path><path d="M0 -126C12 -111.7 24 -97.4 37.8 -91.2C51.5 -84.9 66.9 -86.8 81.3 -81.3C95.7 -75.8 109.1 -63 116.4 -48.2C123.7 -33.4 124.8 -16.7 126 0L0 0Z" fill="#009473"></path></g></svg>