<svg id="visual" viewBox="0 0 1000 250" width="1000" height="250" xmlns="http://www.w3.org/2000/svg" xmlns:xlink="http://www.w3.org/1999/xlink" version="1.1"><path d="M0 84L15.2 76C30.3 68 60.7 52 91 55C121.3 58 151.7 80 182 90.5C212.3 101 242.7 100 273 93.2C303.3 86.3 333.7 73.7 364 69.5C394.3 65.3 424.7 69.7 454.8 71.7C485 73.7 515 73.3 545.2 69.3C575.3 65.3 605.7 57.7 636 59.3C666.3 61 696.7 72 727 76C757.3 80 787.7 77 818 74.5C848.3 72 878.7 70 909 67.7C939.3 65.3 969.7 62.7 984.8 61.3L1000 60L1000 251L984.8 251C969.7 251 939.3 251 909 251C878.7 251 848.3 251 818 251C787.7 251 757.3 251 727 251C696.7 251 666.3 251 636 251C605.7 251 575.3 251 545.2 251C515 251 485 251 454.8 251C424.7 251 394.3 251 364 251C333.7 251 303.3 251 273 251C242.7 251 212.3 251 182 251C151.7 251 121.3 251 91 251C60.7 251 30.3 251 15.2 251L0 251Z" fill="#009473"></path><path d="M0 86L15.2 86.5C30.3 87 60.7 88 91 97.8C121.3 107.7 151.7 126.3 182 130.8C212.3 135.3 242.7 125.7 273 123C303.3 120.3 333.7 124.7 364 124.8C394.3 125 424.7 121 454.8 113.2C485 105.3 515 93.7 545.2 93.3C575.3 93 605.7 104 636 112.5C666.3 121 696.7 127 727 130.2C757.3 133.3 787.7 133.7 818 133.3C848.3 133 878.7 132 909 123.5C939.3 115 969.7 99 984.8 91L1000 83L1000 251L984.8 251C969.7 251 939.3 251 909 251C878.7 251 848.3 251 818 251C787.7 251 757.3 251 727 251C696.7 251 666.3 251 636 251C605.7 251 575.3 251 545.2 251C515 251 485 251 454.8 251C424.7 251 394.3 251 364 251C333.7 251 303.3 251 273 251C242.7 251 212.3 251 182 251C151.7 251 121.3 251 91 251C60.7 251 30.3 251 15.2 251L0 251Z" fill="#00676d"></path><path d="M0 128L15.2 133.5C30.3 139 60.7 150 91 158C121.3 166 151.7 171 182 173.7C212.3 176.3 242.7 176.7 273 170C303.3 163.3 333.7 149.7 364 148.3C394.3 147 424.7 158 454.8 158.8C485 159.7 515 150.3 545.2 144.3C575.3 138.3 605.7 135.7 636 135C666.3 134.3 696.7 135.7 727 138C757.3 140.3 787.7 143.7 818 150C848.3 156.3 878.7 165.7 909 171.5C939.3 177.3 969.7 179.7 984.8 180.8L1000 182L1000 251L984.8 251C969.7 251 939.3 251 909 251C878.7 251 848.3 251 818 251C787.7 251 757.3 251 727 251C696.7 251 666.3 251 636 251C605.7 251 575.3 251 545.2 251C515 251 485 251 454.8 251C424.7 251 394.3 251 364 251C333.7 251 303.3 251 273 251C242.7 251 212.3 251 182 251C151.7 251 121.3 251 91 251C60.7 251 30.3 251 15.2 251L0 251Z" fill="#023a4b"></path><path d="M0 198L15.2 198.8C30.3 199.7 60.7 201.3 91 200.7C121.3 200 151.7 197 182 198.3C212.3 199.7 242.7 205.3 273 209C303.3 212.7 333.7 214.3 364 209.7C394.3 205 424.7 194 454.8 190.7C485 187.3 515 191.7 545.2 195C575.3 198.3 605.7 200.7 636 197.2C666.3 193.7 696.7 184.3 727 180.3C757.3 176.3 787.7 177.7 818 181.2C848.3 184.7 878.7 190.3 909 190.3C939.3 190.3 969.7 184.7 984.8 181.8L1000 179L1000 251L984.8 251C969.7 251 939.3 251 909 251C878.7 251 848.3 251 818 251C787.7 251 757.3 251 727 251C696.7 251 666.3 251 636 251C605.7 251 575.3 251 545.2 251C515 251 485 251 454.8 251C424.7 251 394.3 251 364 251C333.7 251 303.3 251 273 251C242.7 251 212.3 251 182 251C151.7 251 121.3 251 91 251C60.7 251 30.3 251 15.2 251L0 251Z" fill="#001220"></path></svg>