<svg id="visual" viewBox="0 0 900 600" width="900" height="600" xmlns="http://www.w3.org/2000/svg" xmlns:xlink="http://www.w3.org/1999/xlink" version="1.1"><rect x="0" y="0" width="900" height="600" fill="#001220"></rect><path d="M0 366L21.5 367.8C43 369.7 86 373.3 128.8 378.7C171.7 384 214.3 391 257.2 397.7C300 404.3 343 410.7 385.8 414.5C428.7 418.3 471.3 419.7 514.2 411.5C557 403.3 600 385.7 642.8 381C685.7 376.3 728.3 384.7 771.2 391C814 397.3 857 401.7 878.5 403.8L900 406L900 601L878.5 601C857 601 814 601 771.2 601C728.3 601 685.7 601 642.8 601C600 601 557 601 514.2 601C471.3 601 428.7 601 385.8 601C343 601 300 601 257.2 601C214.3 601 171.7 601 128.8 601C86 601 43 601 21.5 601L0 601Z" fill="#fa7268"></path><path d="M0 432L21.5 426.3C43 420.7 86 409.3 128.8 410.5C171.7 411.7 214.3 425.3 257.2 428.3C300 431.3 343 423.7 385.8 430.5C428.7 437.3 471.3 458.7 514.2 466.7C557 474.7 600 469.3 642.8 456C685.7 442.7 728.3 421.3 771.2 419.8C814 418.3 857 436.7 878.5 445.8L900 455L900 601L878.5 601C857 601 814 601 771.2 601C728.3 601 685.7 601 642.8 601C600 601 557 601 514.2 601C471.3 601 428.7 601 385.8 601C343 601 300 601 257.2 601C214.3 601 171.7 601 128.8 601C86 601 43 601 21.5 601L0 601Z" fill="#e06888"></path><path d="M0 505L21.5 499.2C43 493.3 86 481.7 128.8 478.2C171.7 474.7 214.3 479.3 257.2 478C300 476.7 343 469.3 385.8 473.2C428.7 477 471.3 492 514.2 498.2C557 504.3 600 501.7 642.8 495.7C685.7 489.7 728.3 480.3 771.2 474C814 467.7 857 464.3 878.5 462.7L900 461L900 601L878.5 601C857 601 814 601 771.2 601C728.3 601 685.7 601 642.8 601C600 601 557 601 514.2 601C471.3 601 428.7 601 385.8 601C343 601 300 601 257.2 601C214.3 601 171.7 601 128.8 601C86 601 43 601 21.5 601L0 601Z" fill="#b76999"></path><path d="M0 511L21.5 512.7C43 514.3 86 517.7 128.8 516.3C171.7 515 214.3 509 257.2 502.7C300 496.3 343 489.7 385.8 492.7C428.7 495.7 471.3 508.3 514.2 514C557 519.7 600 518.3 642.8 521.7C685.7 525 728.3 533 771.2 534.2C814 535.3 857 529.7 878.5 526.8L900 524L900 601L878.5 601C857 601 814 601 771.2 601C728.3 601 685.7 601 642.8 601C600 601 557 601 514.2 601C471.3 601 428.7 601 385.8 601C343 601 300 601 257.2 601C214.3 601 171.7 601 128.8 601C86 601 43 601 21.5 601L0 601Z" fill="#8b6a98"></path><path d="M0 543L21.5 543.3C43 543.7 86 544.3 128.8 546C171.7 547.7 214.3 550.3 257.2 549.2C300 548 343 543 385.8 538.3C428.7 533.7 471.3 529.3 514.2 528.2C557 527 600 529 642.8 536.8C685.7 544.7 728.3 558.3 771.2 561.8C814 565.3 857 558.7 878.5 555.3L900 552L900 601L878.5 601C857 601 814 601 771.2 601C728.3 601 685.7 601 642.8 601C600 601 557 601 514.2 601C471.3 601 428.7 601 385.8 601C343 601 300 601 257.2 601C214.3 601 171.7 601 128.8 601C86 601 43 601 21.5 601L0 601Z" fill="#676787"></path></svg>