<svg id="visual" viewBox="0 0 900 600" width="900" height="600" xmlns="http://www.w3.org/2000/svg" xmlns:xlink="http://www.w3.org/1999/xlink" version="1.1">
<path d="M0 426L21.5 416.7C43 407.3 86 388.7 128.8 385.8C171.7 383 214.3 396 257.2 396.2C300 396.3 343 383.7 385.8 389.7C428.7 395.7 471.3 420.3 514.2 424.7C557 429 600 413 642.8 406C685.7 399 728.3 401 771.2 398.8C814 396.7 857 390.3 878.5 387.2L900 384L900 601L878.5 601C857 601 814 601 771.2 601C728.3 601 685.7 601 642.8 601C600 601 557 601 514.2 601C471.3 601 428.7 601 385.8 601C343 601 300 601 257.2 601C214.3 601 171.7 601 128.8 601C86 601 43 601 21.5 601L0 601Z" fill="#fa7268"></path><path d="M0 420L21.5 422.8C43 425.7 86 431.3 128.8 435.5C171.7 439.7 214.3 442.3 257.2 447.5C300 452.7 343 460.3 385.8 453.2C428.7 446 471.3 424 514.2 418.5C557 413 600 424 642.8 428.3C685.7 432.7 728.3 430.3 771.2 426C814 421.7 857 415.3 878.5 412.2L900 409L900 601L878.5 601C857 601 814 601 771.2 601C728.3 601 685.7 601 642.8 601C600 601 557 601 514.2 601C471.3 601 428.7 601 385.8 601C343 601 300 601 257.2 601C214.3 601 171.7 601 128.8 601C86 601 43 601 21.5 601L0 601Z" fill="#e06888"></path><path d="M0 470L21.5 474.8C43 479.7 86 489.3 128.8 485.2C171.7 481 214.3 463 257.2 452.8C300 442.7 343 440.3 385.8 440.8C428.7 441.3 471.3 444.7 514.2 447.2C557 449.7 600 451.3 642.8 451.8C685.7 452.3 728.3 451.7 771.2 458.5C814 465.3 857 479.7 878.5 486.8L900 494L900 601L878.5 601C857 601 814 601 771.2 601C728.3 601 685.7 601 642.8 601C600 601 557 601 514.2 601C471.3 601 428.7 601 385.8 601C343 601 300 601 257.2 601C214.3 601 171.7 601 128.8 601C86 601 43 601 21.5 601L0 601Z" fill="#b76999"></path><path d="M0 502L21.5 503.5C43 505 86 508 128.8 511.2C171.7 514.3 214.3 517.7 257.2 519.2C300 520.7 343 520.3 385.8 515C428.7 509.7 471.3 499.3 514.2 494.8C557 490.3 600 491.7 642.8 497.2C685.7 502.7 728.3 512.3 771.2 514.2C814 516 857 510 878.5 507L900 504L900 601L878.5 601C857 601 814 601 771.2 601C728.3 601 685.7 601 642.8 601C600 601 557 601 514.2 601C471.3 601 428.7 601 385.8 601C343 601 300 601 257.2 601C214.3 601 171.7 601 128.8 601C86 601 43 601 21.5 601L0 601Z" fill="#8b6a98"></path><path d="M0 530L21.5 529.3C43 528.7 86 527.3 128.8 529C171.7 530.7 214.3 535.3 257.2 535.2C300 535 343 530 385.8 527.5C428.7 525 471.3 525 514.2 529.3C557 533.7 600 542.3 642.8 550.2C685.7 558 728.3 565 771.2 566.7C814 568.3 857 564.7 878.5 562.8L900 561L900 601L878.5 601C857 601 814 601 771.2 601C728.3 601 685.7 601 642.8 601C600 601 557 601 514.2 601C471.3 601 428.7 601 385.8 601C343 601 300 601 257.2 601C214.3 601 171.7 601 128.8 601C86 601 43 601 21.5 601L0 601Z" fill="#676787"></path>
</svg>