<svg id="visual" viewBox="0 0 900 600" width="900" height="600" xmlns="http://www.w3.org/2000/svg" xmlns:xlink="http://www.w3.org/1999/xlink" version="1.1"><rect x="0" y="0" width="900" height="600" fill="#001220"></rect><path d="M0 388L21.5 385.3C43 382.7 86 377.3 128.8 380.2C171.7 383 214.3 394 257.2 395.7C300 397.3 343 389.7 385.8 386.5C428.7 383.3 471.3 384.7 514.2 385.5C557 386.3 600 386.7 642.8 393C685.7 399.3 728.3 411.7 771.2 405.5C814 399.3 857 374.7 878.5 362.3L900 350L900 601L878.5 601C857 601 814 601 771.2 601C728.3 601 685.7 601 642.8 601C600 601 557 601 514.2 601C471.3 601 428.7 601 385.8 601C343 601 300 601 257.2 601C214.3 601 171.7 601 128.8 601C86 601 43 601 21.5 601L0 601Z" fill="#fa7268"></path><path d="M0 411L21.5 418C43 425 86 439 128.8 438.3C171.7 437.7 214.3 422.3 257.2 420.5C300 418.7 343 430.3 385.8 429.3C428.7 428.3 471.3 414.7 514.2 408.5C557 402.3 600 403.7 642.8 407.3C685.7 411 728.3 417 771.2 426.3C814 435.7 857 448.3 878.5 454.7L900 461L900 601L878.5 601C857 601 814 601 771.2 601C728.3 601 685.7 601 642.8 601C600 601 557 601 514.2 601C471.3 601 428.7 601 385.8 601C343 601 300 601 257.2 601C214.3 601 171.7 601 128.8 601C86 601 43 601 21.5 601L0 601Z" fill="#e06888"></path><path d="M0 468L21.5 475C43 482 86 496 128.8 493.2C171.7 490.3 214.3 470.7 257.2 470.7C300 470.7 343 490.3 385.8 495.8C428.7 501.3 471.3 492.7 514.2 487.3C557 482 600 480 642.8 472.8C685.7 465.7 728.3 453.3 771.2 447.2C814 441 857 441 878.5 441L900 441L900 601L878.5 601C857 601 814 601 771.2 601C728.3 601 685.7 601 642.8 601C600 601 557 601 514.2 601C471.3 601 428.7 601 385.8 601C343 601 300 601 257.2 601C214.3 601 171.7 601 128.8 601C86 601 43 601 21.5 601L0 601Z" fill="#b76999"></path><path d="M0 491L21.5 498.3C43 505.7 86 520.3 128.8 528.5C171.7 536.7 214.3 538.3 257.2 530.5C300 522.7 343 505.3 385.8 498.7C428.7 492 471.3 496 514.2 496.2C557 496.3 600 492.7 642.8 498.2C685.7 503.7 728.3 518.3 771.2 518.5C814 518.7 857 504.3 878.5 497.2L900 490L900 601L878.5 601C857 601 814 601 771.2 601C728.3 601 685.7 601 642.8 601C600 601 557 601 514.2 601C471.3 601 428.7 601 385.8 601C343 601 300 601 257.2 601C214.3 601 171.7 601 128.8 601C86 601 43 601 21.5 601L0 601Z" fill="#8b6a98"></path><path d="M0 532L21.5 536.7C43 541.3 86 550.7 128.8 552C171.7 553.3 214.3 546.7 257.2 542.5C300 538.3 343 536.7 385.8 538.5C428.7 540.3 471.3 545.7 514.2 545C557 544.3 600 537.7 642.8 534.7C685.7 531.7 728.3 532.3 771.2 539C814 545.7 857 558.3 878.5 564.7L900 571L900 601L878.5 601C857 601 814 601 771.2 601C728.3 601 685.7 601 642.8 601C600 601 557 601 514.2 601C471.3 601 428.7 601 385.8 601C343 601 300 601 257.2 601C214.3 601 171.7 601 128.8 601C86 601 43 601 21.5 601L0 601Z" fill="#676787"></path></svg>